<svg width="88" height="31" viewBox="0 0 88 31" fill="none" xmlns="http://www.w3.org/2000/svg">
<g clip-path="url(#clip0_762_11404)">
<path fill-rule="evenodd" clip-rule="evenodd" d="M0 0.98C0 0.33 0.25 0 0.74 0H87.25C87.75 0 87.99 0.33 87.99 0.98V30.04C87.99 30.68 87.74 31 87.25 31H0.74C0.24 31 0 30.68 0 30.04V0.98Z" fill="#4A8504"/>
<path fill-rule="evenodd" clip-rule="evenodd" d="M65.87 9.39001L64.98 9.11001C64.99 8.54001 65.16 8.13001 65.48 7.87001C65.69 7.70001 65.96 7.59001 66.3 7.54001L83.16 5.42001C84.57 5.23001 85.29 5.81001 85.31 7.15001L85.64 22.19C85.67 23.53 84.95 24.15 83.51 24.05L67.3 22.77C67.3 22.51 67.3 22.26 67.32 22.03L82.29 23.22C83.58 23.31 84.21 22.75 84.18 21.55L83.92 8.07001C83.88 6.86001 83.24 6.34001 81.99 6.53001L67.02 8.42001C66.39 8.48001 66 8.81001 65.87 9.40001V9.39001Z" fill="#274602"/>
<path fill-rule="evenodd" clip-rule="evenodd" d="M82.54 5.79998C83.5 5.74998 84.09 6.10998 84.3 6.87998C84.4 7.12998 84.45 7.41998 84.47 7.74998L84.79 22.38V22.81C84.82 24.07 84.15 24.67 82.8 24.61C82.76 24.6 82.72 24.59 82.67 24.59L66.68 23.38V21.97L81.39 23.1C81.39 23.1 81.45 23.1 81.48 23.12C82.01 23.14 82.43 23.06 82.72 22.86C82.92 22.59 83.01 22.21 83 21.73L82.74 8.61998C82.73 8.29998 82.67 8.02998 82.57 7.81998C82.54 7.79998 82.51 7.76998 82.48 7.74998C82.22 7.57998 81.87 7.49998 81.42 7.52998C81.33 7.52998 81.25 7.52998 81.16 7.54998L66.3 9.38998C65.77 9.44998 65.41 9.70998 65.24 10.15L63.98 9.34998C64.04 8.92998 64.21 8.61998 64.48 8.41998C64.7 8.11998 65.05 7.93998 65.52 7.87998L82.21 5.81998C82.32 5.80998 82.43 5.79998 82.53 5.79998H82.54Z" fill="#FFCC00"/>
<path fill-rule="evenodd" clip-rule="evenodd" d="M77.1 10.53C77.32 10.74 77.43 10.98 77.43 11.25C77.43 11.52 77.32 11.78 77.1 11.99C76.9 12.2 76.67 12.31 76.39 12.31C76.08 12.31 75.83 12.21 75.63 11.99C75.42 11.78 75.31 11.53 75.31 11.25C75.31 10.97 75.41 10.74 75.63 10.53C75.83 10.31 76.08 10.2 76.39 10.2C76.66 10.2 76.9 10.31 77.1 10.53ZM72.62 10.2C72.9 10.2 73.15 10.31 73.34 10.53C73.56 10.74 73.67 10.98 73.67 11.25C73.67 11.52 73.56 11.78 73.34 11.99C73.14 12.2 72.9 12.31 72.62 12.31C72.34 12.31 72.08 12.21 71.88 11.99C71.67 11.78 71.56 11.53 71.56 11.25C71.56 10.97 71.67 10.74 71.88 10.53C72.08 10.31 72.33 10.2 72.62 10.2ZM72.62 14.1C72.9 14.1 73.15 14.21 73.34 14.43C73.56 14.63 73.67 14.87 73.67 15.15C73.67 15.43 73.56 15.67 73.34 15.89C73.14 16.1 72.9 16.21 72.62 16.21C72.34 16.21 72.08 16.11 71.88 15.89C71.67 15.67 71.56 15.42 71.56 15.15C71.56 14.88 71.67 14.62 71.88 14.43C72.08 14.21 72.33 14.1 72.62 14.1ZM76.39 14.1C76.66 14.1 76.9 14.21 77.1 14.43C77.32 14.63 77.43 14.87 77.43 15.15C77.43 15.43 77.32 15.67 77.1 15.89C76.9 16.1 76.67 16.21 76.39 16.21C76.08 16.21 75.83 16.11 75.63 15.89C75.42 15.67 75.31 15.42 75.31 15.15C75.31 14.88 75.41 14.62 75.63 14.43C75.83 14.21 76.08 14.1 76.39 14.1ZM68.87 10.2C69.14 10.2 69.38 10.31 69.59 10.53C69.8 10.74 69.91 10.98 69.91 11.25C69.91 11.52 69.8 11.78 69.59 11.99C69.38 12.2 69.14 12.31 68.87 12.31C68.57 12.31 68.32 12.21 68.11 11.99C67.9 11.78 67.79 11.53 67.79 11.25C67.79 10.97 67.9 10.74 68.11 10.53C68.32 10.31 68.57 10.2 68.87 10.2ZM68.11 14.43C68.32 14.21 68.57 14.1 68.87 14.1C69.14 14.1 69.38 14.21 69.59 14.43C69.8 14.63 69.91 14.87 69.91 15.15C69.91 15.43 69.8 15.67 69.59 15.89C69.38 16.1 69.14 16.21 68.87 16.21C68.57 16.21 68.32 16.11 68.11 15.89C67.9 15.67 67.79 15.42 67.79 15.15C67.79 14.88 67.9 14.62 68.11 14.43ZM68.72 18.39C69 18.39 69.25 18.5 69.44 18.72C69.66 18.93 69.77 19.17 69.77 19.43C69.77 19.72 69.66 19.96 69.44 20.17C69.24 20.39 69 20.5 68.72 20.5C68.44 20.5 68.18 20.39 67.98 20.17C67.77 19.96 67.66 19.71 67.66 19.43C67.66 19.17 67.77 18.93 67.98 18.72C68.18 18.5 68.43 18.39 68.72 18.39ZM76.97 18.72C77.18 18.93 77.29 19.17 77.29 19.43C77.29 19.72 77.19 19.96 76.97 20.17C76.76 20.39 76.52 20.5 76.25 20.5C75.94 20.5 75.69 20.39 75.49 20.17C75.28 19.96 75.17 19.71 75.17 19.43C75.17 19.17 75.27 18.93 75.49 18.72C75.69 18.5 75.94 18.39 76.25 18.39C76.52 18.39 76.76 18.5 76.97 18.72ZM73.53 19.43C73.53 19.72 73.42 19.96 73.2 20.17C73 20.39 72.77 20.5 72.49 20.5C72.18 20.5 71.93 20.39 71.73 20.17C71.52 19.96 71.41 19.71 71.41 19.43C71.41 19.17 71.52 18.93 71.73 18.72C71.93 18.5 72.18 18.39 72.49 18.39C72.76 18.39 73 18.5 73.2 18.72C73.42 18.93 73.53 19.17 73.53 19.43ZM81.24 10.53C81.45 10.74 81.56 10.98 81.56 11.25C81.56 11.52 81.45 11.78 81.24 11.99C81.03 12.2 80.79 12.31 80.52 12.31C80.21 12.31 79.96 12.21 79.76 11.99C79.55 11.78 79.44 11.53 79.44 11.25C79.44 10.97 79.55 10.74 79.76 10.53C79.96 10.31 80.21 10.2 80.52 10.2C80.79 10.2 81.03 10.31 81.24 10.53ZM80.51 14.1C80.78 14.1 81.02 14.21 81.23 14.43C81.44 14.63 81.55 14.87 81.55 15.15C81.55 15.43 81.44 15.67 81.23 15.89C81.02 16.1 80.78 16.21 80.51 16.21C80.2 16.21 79.95 16.11 79.75 15.89C79.54 15.67 79.43 15.42 79.43 15.15C79.43 14.88 79.54 14.62 79.75 14.43C79.95 14.21 80.2 14.1 80.51 14.1ZM80.37 18.39C80.65 18.39 80.9 18.5 81.09 18.72C81.31 18.93 81.42 19.17 81.42 19.43C81.42 19.72 81.31 19.96 81.09 20.17C80.89 20.39 80.65 20.5 80.37 20.5C80.09 20.5 79.83 20.39 79.63 20.17C79.42 19.96 79.31 19.71 79.31 19.43C79.31 19.17 79.42 18.93 79.63 18.72C79.83 18.5 80.08 18.39 80.37 18.39Z" fill="#FFCC00"/>
<path fill-rule="evenodd" clip-rule="evenodd" d="M75.15 9.56998C75.52 9.16998 75.98 8.97998 76.52 8.97998C77.03 8.97998 77.46 9.17998 77.82 9.56998C78.22 9.94998 78.41 10.39 78.41 10.87C78.41 11.38 78.21 11.83 77.82 12.23C77.46 12.61 77.03 12.81 76.52 12.81C75.98 12.81 75.52 12.62 75.15 12.23C74.78 11.83 74.59 11.38 74.59 10.87C74.59 10.36 74.78 9.94998 75.15 9.56998Z" fill="#274602"/>
<path fill-rule="evenodd" clip-rule="evenodd" d="M70.51 15.49C70.51 16 70.31 16.45 69.92 16.85C69.56 17.23 69.13 17.43 68.64 17.43C68.08 17.43 67.62 17.24 67.27 16.85C66.89 16.45 66.69 16 66.69 15.49C66.69 14.98 66.88 14.56 67.27 14.19C67.63 13.79 68.09 13.6 68.64 13.6C69.14 13.6 69.56 13.8 69.92 14.19C70.32 14.56 70.51 14.99 70.51 15.49Z" fill="#274602"/>
<path fill-rule="evenodd" clip-rule="evenodd" d="M75.04 18.37C75.4 17.97 75.86 17.78 76.41 17.78C76.91 17.78 77.33 17.98 77.69 18.37C78.1 18.75 78.3 19.19 78.3 19.67C78.3 20.19 78.1 20.65 77.69 21.04C77.33 21.42 76.9 21.62 76.41 21.62C75.85 21.62 75.39 21.43 75.04 21.04C74.66 20.64 74.46 20.19 74.46 19.67C74.46 19.19 74.65 18.75 75.04 18.37Z" fill="#274602"/>
<path fill-rule="evenodd" clip-rule="evenodd" d="M7.40998 18.09C7.29998 18.15 7.18998 18.24 7.07998 18.35C6.96998 18.47 6.88998 18.61 6.83998 18.76C6.77998 18.9 6.74998 19.04 6.74998 19.19C6.74998 19.5 6.84998 19.79 7.06998 20.06C7.27998 20.3 7.51998 20.41 7.78998 20.41C7.89998 20.41 8.00998 20.39 8.10998 20.35C8.20998 20.29 8.34998 20.17 8.51998 20C8.68998 19.81 8.77998 19.57 8.77998 19.26C8.77998 18.95 8.66998 18.65 8.45998 18.41C8.25998 18.16 8.02998 18.04 7.74998 18.04C7.63998 18.04 7.52998 18.06 7.41998 18.1L7.40998 18.09ZM10.43 18C11.16 19.21 11.53 20.53 11.53 21.94C11.53 22.57 11.45 23.15 11.29 23.69C11.12 24.21 10.85 24.64 10.49 24.99H9.79998C9.84998 24.84 9.88998 24.7 9.92998 24.56C9.93998 24.4 9.94998 24.23 9.94998 24.06C9.94998 23.35 9.73998 22.72 9.31998 22.15C8.88998 21.58 8.38998 21.3 7.82998 21.3C7.26998 21.3 6.73998 21.58 6.30998 22.15C5.88998 22.72 5.67998 23.36 5.67998 24.06C5.67998 24.37 5.73998 24.68 5.84998 24.99H5.15998C4.79998 24.64 4.53998 24.21 4.37998 23.69C4.18998 23.16 4.09998 22.57 4.09998 21.93C4.09998 20.53 4.45998 19.22 5.19998 17.99C5.92998 16.79 6.80998 16.19 7.83998 16.19C8.86998 16.19 9.70998 16.8 10.44 18.01L10.43 18Z" fill="#FFCC00"/>
<path d="M19.57 23.75C18.99 23.75 18.52 23.55 18.17 23.15C17.85 22.79 17.69 22.35 17.69 21.84C17.69 21.33 17.84 20.92 18.15 20.58C18.5 20.2 18.97 20.01 19.57 20.01H21.68V20.66H19.57C19.2 20.66 18.89 20.78 18.66 21.03C18.46 21.25 18.35 21.52 18.33 21.84C18.32 22.18 18.42 22.47 18.62 22.7C18.85 22.96 19.16 23.1 19.57 23.1H21.68V23.75H19.57Z" fill="white"/>
<path d="M24.1 23.75C23.52 23.75 23.05 23.55 22.7 23.15C22.38 22.79 22.22 22.35 22.22 21.84C22.22 21.33 22.37 20.92 22.68 20.58C23.03 20.2 23.5 20.01 24.1 20.01H26.21V20.66H24.1C23.73 20.66 23.42 20.78 23.19 21.03C22.99 21.25 22.88 21.52 22.86 21.84C22.85 22.18 22.95 22.47 23.15 22.7C23.38 22.96 23.69 23.1 24.1 23.1H26.21V23.75H24.1Z" fill="white"/>
<path d="M27.48 23.11H30.06V23.76H26.83V20.02H30.06V20.67H27.48V23.11ZM29.89 21.53V22.18H27.75V21.53H29.89Z" fill="white"/>
<path d="M33.51 23.75H30.66V23.1H33.51C33.72 23.1 33.9 23.05 34.02 22.94C34.14 22.84 34.2 22.72 34.2 22.58C34.2 22.44 34.14 22.33 34.03 22.23C33.9 22.13 33.73 22.07 33.51 22.07H31.74C31.37 22.07 31.08 21.96 30.87 21.75C30.68 21.56 30.58 21.32 30.58 21.04C30.58 20.76 30.68 20.53 30.87 20.33C31.09 20.12 31.38 20.01 31.74 20.01H34.56V20.66H31.74C31.6 20.66 31.49 20.7 31.41 20.77C31.33 20.85 31.29 20.94 31.29 21.04C31.29 21.14 31.33 21.23 31.4 21.3C31.48 21.38 31.6 21.42 31.74 21.42H33.51C33.91 21.42 34.23 21.54 34.47 21.78C34.68 22 34.79 22.27 34.79 22.59C34.79 22.91 34.68 23.17 34.47 23.39C34.23 23.63 33.91 23.75 33.51 23.75Z" fill="white"/>
<path d="M38.07 23.75H35.22V23.1H38.07C38.28 23.1 38.46 23.05 38.58 22.94C38.7 22.84 38.76 22.72 38.76 22.58C38.76 22.44 38.7 22.33 38.59 22.23C38.46 22.13 38.29 22.07 38.07 22.07H36.3C35.93 22.07 35.64 21.96 35.43 21.75C35.24 21.56 35.14 21.32 35.14 21.04C35.14 20.76 35.24 20.53 35.43 20.33C35.64 20.12 35.94 20.01 36.3 20.01H39.12V20.66H36.3C36.16 20.66 36.05 20.7 35.97 20.77C35.89 20.85 35.85 20.94 35.85 21.04C35.85 21.14 35.89 21.23 35.96 21.3C36.04 21.38 36.16 21.42 36.3 21.42H38.07C38.47 21.42 38.79 21.54 39.03 21.78C39.24 22 39.35 22.27 39.35 22.59C39.35 22.91 39.24 23.17 39.03 23.39C38.79 23.63 38.47 23.75 38.07 23.75Z" fill="white"/>
<path d="M40.02 23.75V20.01H40.67V23.75H40.02Z" fill="white"/>
<path d="M45.34 21.9C45.6 22.1 45.74 22.36 45.74 22.66C45.74 22.96 45.62 23.2 45.37 23.4C45.1 23.63 44.72 23.74 44.25 23.74H41.57V20H44.25C44.72 20 45.09 20.12 45.37 20.35C45.62 20.56 45.74 20.81 45.74 21.11C45.74 21.41 45.61 21.68 45.34 21.89V21.9ZM44.35 23.1C44.59 23.1 44.78 23.06 44.92 22.96C45.04 22.88 45.11 22.78 45.11 22.66C45.11 22.54 45.05 22.44 44.92 22.36C44.78 22.27 44.59 22.22 44.35 22.22H42.6V21.57H44.35C44.59 21.57 44.78 21.52 44.92 21.42C45.05 21.33 45.11 21.23 45.11 21.1C45.11 20.97 45.05 20.87 44.92 20.78C44.78 20.69 44.59 20.64 44.35 20.64H42.22V23.08H44.35V23.1Z" fill="white"/>
<path d="M46.52 23.75V20.01H47.17V23.75H46.52Z" fill="white"/>
<path d="M47.89 23.75V20.01H48.54V23.1H51.11V23.75H47.89Z" fill="white"/>
<path d="M51.7 23.75V20.01H52.35V23.75H51.7Z" fill="white"/>
<path d="M55.13 20.67V23.76H54.48V20.67H53V20.02H56.6V20.67H55.13Z" fill="white"/>
<path d="M59.27 23.75H58.62V22.5L56.72 20.01H57.56L58.97 21.86L60.29 20.01H61.12L59.27 22.51V23.75Z" fill="white"/>
<path fill-rule="evenodd" clip-rule="evenodd" d="M10.04 21.92C10.04 20.52 10.41 19.21 11.14 17.98C11.87 16.78 12.75 16.18 13.78 16.18C14.81 16.18 15.65 16.79 16.38 18C17.11 19.21 17.48 20.53 17.48 21.94C17.48 22.57 17.4 23.15 17.24 23.69C17.07 24.21 16.8 24.64 16.44 24.99H15.75C15.8 24.84 15.84 24.7 15.88 24.56C15.89 24.4 15.9 24.23 15.9 24.06C15.9 23.35 15.69 22.72 15.27 22.15C14.84 21.58 14.34 21.3 13.78 21.3C13.22 21.3 12.69 21.58 12.26 22.15C11.84 22.72 11.63 23.36 11.63 24.06C11.63 24.37 11.69 24.68 11.8 24.99H11.11C10.75 24.64 10.49 24.21 10.33 23.69C10.14 23.16 10.05 22.57 10.05 21.93L10.04 21.92ZM13.68 18.04C13.57 18.04 13.46 18.06 13.35 18.1C13.24 18.16 13.13 18.25 13.02 18.36C12.91 18.48 12.83 18.62 12.78 18.77C12.72 18.91 12.69 19.05 12.69 19.2C12.69 19.51 12.8 19.8 13.01 20.07C13.22 20.31 13.46 20.42 13.73 20.42C13.84 20.42 13.95 20.4 14.05 20.36C14.15 20.3 14.28 20.18 14.46 20.01C14.63 19.82 14.72 19.58 14.72 19.27C14.72 18.96 14.61 18.66 14.4 18.42C14.2 18.17 13.97 18.05 13.69 18.05L13.68 18.04Z" fill="#FFCC00"/>
<path d="M5.22002 12.83L5.73002 13.21C5.73002 13.21 5.80002 13.3 5.80002 13.33C5.80002 13.35 5.78002 13.37 5.74002 13.38C5.69002 13.38 5.64002 13.41 5.61002 13.44C5.46002 13.65 5.30002 13.85 5.13002 14.04C4.93002 14.24 4.68002 14.44 4.37002 14.65C4.30002 14.65 4.25002 14.63 4.22002 14.58C4.09002 14.48 3.99002 14.39 3.90002 14.31C3.85002 14.29 3.83002 14.27 3.83002 14.25C3.83002 14.23 3.83002 14.22 3.86002 14.2C4.01002 14.14 4.13002 14.07 4.22002 13.99C4.42002 13.83 4.60002 13.67 4.75002 13.49C4.88002 13.33 5.02002 13.14 5.17002 12.91C5.18002 12.87 5.20002 12.85 5.21002 12.85L5.22002 12.83ZM11.71 9.69999C11.78 9.69999 11.81 9.73999 11.81 9.81999V10.14C11.81 10.22 11.77 10.26 11.71 10.26H3.98002C3.91002 10.26 3.88002 10.22 3.88002 10.14V9.81999C3.88002 9.73999 3.91002 9.69999 3.98002 9.69999H11.71ZM5.71002 6.49999C6.19002 6.73999 6.44002 6.87999 6.44002 6.91999C6.44002 6.97999 6.42002 6.99999 6.37002 6.99999C6.27002 6.99999 6.21002 7.03999 6.17002 7.08999C5.87002 7.65999 5.57002 8.08999 5.28002 8.37999C5.11002 8.55999 4.83002 8.80999 4.44002 9.12999C4.38002 9.12999 4.32002 9.09999 4.27002 9.04999C4.18002 8.97999 4.10002 8.90999 4.00002 8.82999C3.96002 8.79999 3.94002 8.75999 3.94002 8.72999C4.15002 8.55999 4.35002 8.37999 4.56002 8.18999C4.83002 7.93999 5.06002 7.66999 5.26002 7.36999C5.43002 7.09999 5.56002 6.82999 5.66002 6.56999C5.67002 6.51999 5.69002 6.48999 5.71002 6.48999V6.49999ZM11.46 11.96C11.53 11.96 11.56 12 11.56 12.08V12.41C11.56 12.49 11.53 12.53 11.46 12.53H4.29002C4.22002 12.53 4.19002 12.49 4.19002 12.41V12.08C4.19002 12 4.22002 11.96 4.29002 11.96H11.46ZM5.19002 7.78999H5.82002V12.13C5.82002 12.21 5.77002 12.25 5.68002 12.25H5.32002C5.23002 12.25 5.19002 12.21 5.19002 12.13V7.78999ZM11.32 7.50999C11.39 7.50999 11.42 7.54999 11.42 7.62999V7.94999C11.42 8.02999 11.39 8.06999 11.32 8.06999H5.58002C5.51002 8.06999 5.48002 8.02999 5.48002 7.94999V7.62999C5.48002 7.54999 5.51002 7.50999 5.58002 7.50999H11.32ZM7.15002 12.92C7.40002 13.33 7.63002 13.77 7.84002 14.24C7.84002 14.33 7.82002 14.38 7.78002 14.39C7.56002 14.54 7.39002 14.61 7.26002 14.61C7.04002 14.03 6.83002 13.55 6.63002 13.16C6.63002 13.09 6.77002 13 7.05002 12.86C7.10002 12.86 7.13002 12.88 7.15002 12.92ZM6.76002 7.78999H7.39002V12.13C7.39002 12.21 7.34002 12.25 7.25002 12.25H6.89002C6.80002 12.25 6.76002 12.21 6.76002 12.13V7.78999ZM8.36002 7.78999H8.99002V12.13C8.99002 12.21 8.94002 12.25 8.85002 12.25H8.49002C8.41002 12.25 8.36002 12.21 8.36002 12.13V7.78999ZM8.89002 12.92C9.20002 13.34 9.49002 13.79 9.76002 14.27C9.76002 14.36 9.74002 14.41 9.70002 14.42C9.48002 14.57 9.31002 14.64 9.18002 14.64C8.90002 14.05 8.63002 13.55 8.38002 13.16C8.38002 13.09 8.52002 13 8.80002 12.86C8.85002 12.86 8.88002 12.88 8.90002 12.92H8.89002ZM9.97002 7.78999H10.6V12.13C10.6 12.21 10.55 12.25 10.46 12.25H10.1C10.02 12.25 9.97002 12.21 9.97002 12.13V7.78999ZM11.3 13.5C11.54 13.75 11.75 13.98 11.92 14.19C11.92 14.2 11.9 14.23 11.87 14.27C11.69 14.52 11.59 14.65 11.58 14.65C11.32 14.33 11.04 14.03 10.74 13.75C10.49 13.53 10.29 13.38 10.13 13.29C10.13 13.26 10.23 13.13 10.43 12.9C10.46 12.86 10.49 12.84 10.5 12.84C10.83 13.08 11.1 13.3 11.31 13.5H11.3Z" fill="white"/>
<path d="M13.42 6.86001H13.78C13.87 6.86001 13.92 6.90001 13.92 6.97001V14.56C13.92 14.64 13.87 14.68 13.78 14.68H13.42C13.33 14.68 13.29 14.64 13.29 14.56V6.97001C13.29 6.90001 13.33 6.86001 13.42 6.86001ZM15.38 6.86001V7.38001H13.73C13.65 7.38001 13.61 7.35001 13.61 7.28001V6.96001C13.61 6.89001 13.65 6.86001 13.73 6.86001H15.38ZM15.38 6.86001C15.54 6.86001 15.64 6.88001 15.69 6.93001C15.83 7.07001 15.9 7.18001 15.9 7.27001L14.99 9.53001C14.99 9.53001 14.98 9.60001 14.98 9.63001C14.98 9.65001 14.99 9.68001 15.02 9.70001C15.34 10.04 15.58 10.37 15.75 10.71C15.88 11.03 15.95 11.34 15.95 11.63C15.95 12.15 15.87 12.54 15.7 12.79C15.51 13.1 15.19 13.26 14.76 13.26C14.48 13.26 14.34 13.2 14.33 13.09C14.31 12.95 14.27 12.8 14.21 12.62C14.21 12.53 14.23 12.48 14.28 12.48L14.76 12.54C14.97 12.54 15.1 12.45 15.16 12.28C15.21 12.11 15.23 11.87 15.23 11.55C15.23 11.3 15.15 11.04 15 10.75C14.84 10.42 14.6 10.1 14.27 9.81001C14.23 9.78001 14.21 9.76001 14.21 9.74001C14.21 9.72001 14.22 9.67001 14.25 9.61001L15.39 6.87001L15.38 6.86001ZM20.96 8.85001C21.02 8.85001 21.06 8.89001 21.06 8.96001V9.26001C21.06 9.33001 21.03 9.37001 20.96 9.37001H15.72C15.65 9.37001 15.62 9.33001 15.62 9.26001V8.96001C15.62 8.89001 15.65 8.85001 15.72 8.85001H20.96ZM21.03 13.2C21.1 13.2 21.13 13.24 21.13 13.31V13.61C21.13 13.68 21.1 13.72 21.03 13.72H15.72C15.65 13.72 15.62 13.68 15.62 13.61V13.31C15.62 13.24 15.65 13.2 15.72 13.2H21.03ZM20.75 7.32001C20.82 7.32001 20.85 7.36001 20.85 7.43001V7.73001C20.85 7.80001 20.82 7.84001 20.75 7.84001H16.11C16.05 7.84001 16.01 7.80001 16.01 7.73001V7.43001C16.01 7.36001 16.04 7.32001 16.11 7.32001H20.75ZM16.44 9.98001H20.4L19.9 10.47H16.98V12.11L16.48 12.6C16.39 12.6 16.35 12.56 16.35 12.48V10.1C16.35 10.02 16.38 9.98001 16.44 9.98001ZM19.91 10.47L20.41 9.98001C20.5 9.98001 20.54 10.02 20.54 10.1V12.48C20.54 12.56 20.51 12.6 20.45 12.6H16.49L16.99 12.11H19.91V10.47ZM20.13 11.02C20.19 11.02 20.22 11.05 20.22 11.12V11.4C20.22 11.47 20.19 11.5 20.13 11.5H16.76C16.7 11.5 16.67 11.47 16.67 11.4V11.12C16.67 11.05 16.7 11.02 16.76 11.02H20.13ZM17.59 8.51001C17.68 8.66001 17.75 8.82001 17.82 9.00001C17.82 9.02001 17.64 9.08001 17.27 9.18001C17.25 9.07001 17.19 8.94001 17.11 8.78001C17.02 8.60001 16.9 8.42001 16.76 8.24001C16.76 8.20001 16.91 8.11001 17.22 7.96001C17.37 8.16001 17.49 8.34001 17.59 8.51001ZM18.91 6.68001C18.91 6.76001 18.88 6.80001 18.82 6.81001C18.76 6.81001 18.73 6.88001 18.73 6.99001V7.46001C18.73 7.54001 18.68 7.58001 18.59 7.58001H18.23C18.14 7.58001 18.1 7.54001 18.1 7.46001V6.68001C18.1 6.61001 18.14 6.57001 18.23 6.57001C18.69 6.57001 18.91 6.61001 18.91 6.69001V6.68001ZM18.09 12.35H18.72V14.6C18.72 14.68 18.67 14.72 18.58 14.72H18.22C18.13 14.72 18.09 14.68 18.09 14.6V12.35ZM19.46 7.96001L19.97 8.17001C20.05 8.20001 20.09 8.25001 20.09 8.29001C20.09 8.32001 20.07 8.34001 20.03 8.36001C19.97 8.36001 19.94 8.38001 19.93 8.43001C19.78 8.76001 19.64 9.02001 19.49 9.20001C19.46 9.24001 19.43 9.26001 19.42 9.26001C19.39 9.26001 19.34 9.24001 19.28 9.21001C19.17 9.15001 19.06 9.10001 18.96 9.06001C18.91 9.04001 18.89 9.03001 18.89 9.02001C18.89 9.02001 18.89 9.00001 18.91 8.98001C19.04 8.81001 19.13 8.66001 19.2 8.54001C19.29 8.38001 19.36 8.21001 19.4 8.05001C19.42 8.00001 19.43 7.97001 19.45 7.97001L19.46 7.96001Z" fill="white"/>
<path d="M23.47 7.46999L24 7.66999C23.9 8.23999 23.79 8.75999 23.68 9.21999C23.55 9.69999 23.42 10.12 23.27 10.49C23.13 10.88 22.96 11.25 22.78 11.58C22.71 11.58 22.66 11.56 22.63 11.53C22.51 11.47 22.38 11.41 22.26 11.35C22.21 11.35 22.18 11.33 22.18 11.3C22.44 10.88 22.64 10.46 22.8 10.05C22.96 9.65999 23.07 9.27999 23.16 8.90999C23.24 8.62999 23.34 8.16999 23.44 7.52999C23.44 7.48999 23.45 7.47999 23.47 7.47999V7.46999ZM24.84 7.24999C24.91 7.24999 24.94 7.28999 24.94 7.35999V7.65999C24.94 7.72999 24.91 7.76999 24.84 7.76999H22.6C22.53 7.76999 22.5 7.72999 22.5 7.65999V7.35999C22.5 7.28999 22.53 7.24999 22.6 7.24999H24.84ZM23.17 9.92999H23.49C23.57 9.92999 23.61 9.96999 23.61 10.04V14.55C23.61 14.62 23.57 14.65 23.49 14.65H23.17C23.09 14.65 23.06 14.62 23.06 14.55V10.04C23.06 9.96999 23.1 9.92999 23.17 9.92999ZM24.72 9.92999C24.8 9.92999 24.83 9.95998 24.83 10.03V13.7C24.83 13.77 24.79 13.8 24.71 13.8H24.39C24.31 13.8 24.28 13.76 24.28 13.7V10.44H23.44C23.38 10.44 23.34 10.41 23.34 10.34V10.03C23.34 9.95998 23.37 9.92999 23.44 9.92999H24.73H24.72ZM24.49 12.89C24.56 12.89 24.59 12.93 24.59 13V13.3C24.59 13.37 24.56 13.41 24.49 13.41H23.43C23.37 13.41 23.33 13.37 23.33 13.3V13C23.33 12.93 23.36 12.89 23.43 12.89H24.49ZM26.83 10.32C26.9 10.34 26.93 10.37 26.93 10.4C26.93 10.46 26.91 10.49 26.87 10.51C26.78 10.54 26.74 10.59 26.74 10.68C26.74 11.61 26.69 12.29 26.6 12.73C26.48 13.21 26.29 13.62 26.05 13.97C25.87 14.22 25.64 14.45 25.36 14.65H25.27C25.11 14.6 24.95 14.55 24.8 14.49C24.77 14.48 24.76 14.45 24.76 14.4C25.09 14.2 25.36 13.99 25.56 13.75C25.76 13.51 25.91 13.21 26.01 12.85C26.14 12.47 26.21 11.82 26.21 10.9C26.21 10.8 26.21 10.61 26.19 10.34C26.19 10.29 26.22 10.26 26.29 10.26L26.84 10.32H26.83ZM25.73 9.34999L26.21 9.54999C26.28 9.57999 26.32 9.61999 26.32 9.65999C26.32 9.71999 26.3 9.75999 26.25 9.78999C26.18 9.78999 26.14 9.82999 26.12 9.91999C25.93 10.57 25.74 11.08 25.56 11.43C25.52 11.5 25.49 11.54 25.47 11.54C25.44 11.54 25.39 11.52 25.34 11.49C25.23 11.44 25.13 11.39 25.04 11.35C25 11.33 24.98 11.32 24.98 11.31C24.98 11.3 24.99 11.27 25.01 11.24C25.18 10.92 25.31 10.64 25.39 10.41C25.51 10.1 25.61 9.79998 25.66 9.48998C25.68 9.39998 25.7 9.34999 25.73 9.34999ZM27.42 11.79C27.48 11.79 27.51 11.82 27.51 11.89V12.17C27.51 12.24 27.48 12.27 27.42 12.27H25.27C25.21 12.27 25.18 12.24 25.18 12.17V11.89C25.18 11.82 25.21 11.79 25.27 11.79H27.42ZM25.93 6.72999C25.93 6.72999 25.9 6.80999 25.83 6.85999V8.52998C25.83 8.59998 25.87 8.63999 25.94 8.63999H26.92C27.04 8.63999 27.15 8.44998 27.25 8.06998L27.73 8.36999C27.56 8.88999 27.33 9.14998 27.07 9.14998H25.74C25.46 9.14998 25.32 9.02999 25.32 8.78999V6.70999C25.32 6.64999 25.34 6.60999 25.39 6.60999C25.76 6.63999 25.94 6.68998 25.94 6.73998L25.93 6.72999ZM27.16 6.97999C27.16 6.97999 27.22 6.99999 27.25 7.04999C27.47 7.33999 27.58 7.48999 27.58 7.50999C27.58 7.55999 27.56 7.58999 27.52 7.58999L27.33 7.55999H27.31C27.19 7.63999 27.05 7.71999 26.91 7.80999C26.73 7.88999 26.53 7.96998 26.32 8.02998C26.15 8.09998 25.93 8.14999 25.66 8.19999L25.5 7.72999C25.77 7.66999 26.01 7.60999 26.23 7.51999C26.43 7.44999 26.62 7.35999 26.79 7.24999C26.92 7.17999 27.03 7.08999 27.14 6.97999H27.16ZM27.39 10.15C27.45 10.15 27.48 10.18 27.48 10.25V10.53C27.48 10.6 27.45 10.63 27.39 10.63H25.76C25.7 10.63 25.67 10.6 25.67 10.53V10.25C25.67 10.18 25.7 10.15 25.76 10.15H27.39ZM26.92 12.72C27 12.91 27.14 13.13 27.34 13.38C27.36 13.4 27.38 13.42 27.38 13.44C27.38 13.46 27.36 13.48 27.32 13.51C27.26 13.59 27.17 13.68 27.07 13.77C27.03 13.81 27 13.84 26.97 13.84C26.95 13.84 26.93 13.83 26.91 13.81C26.77 13.61 26.65 13.39 26.55 13.15C26.45 12.89 26.35 12.59 26.25 12.23L26.66 11.99C26.76 12.3 26.84 12.55 26.92 12.72ZM27.83 10.81L28.58 10.89C28.58 10.89 28.56 10.96 28.53 10.98C28.45 11.02 28.42 11.07 28.42 11.12C28.42 11.6 28.4 11.96 28.38 12.21C28.37 12.45 28.34 12.7 28.3 12.95C28.26 13.18 28.21 13.4 28.14 13.6C28.08 13.81 28.01 13.99 27.93 14.14C27.82 14.33 27.66 14.54 27.45 14.77C27.41 14.77 27.38 14.74 27.36 14.69C27.28 14.6 27.18 14.51 27.08 14.43C27.03 14.39 27.01 14.36 27.01 14.32C27.06 14.28 27.12 14.23 27.19 14.15C27.27 14.06 27.34 13.97 27.4 13.88C27.48 13.77 27.54 13.65 27.58 13.52C27.64 13.37 27.69 13.2 27.74 13.01C27.78 12.84 27.82 12.65 27.85 12.45C27.88 12.23 27.9 12 27.91 11.79C27.92 11.51 27.91 11.18 27.85 10.8L27.83 10.81ZM30.4 9.57999L30.26 10.1H27.75C27.69 10.1 27.65 10.06 27.65 9.98998V9.67999C27.65 9.60999 27.68 9.56998 27.75 9.56998H30.4V9.57999ZM28.18 12.1C28.26 12.1 28.3 12.13 28.31 12.2C28.32 12.5 28.35 12.77 28.4 13.02C28.43 13.22 28.47 13.39 28.52 13.53C28.56 13.66 28.6 13.76 28.65 13.83C28.7 13.91 28.76 13.97 28.84 14.01C28.9 14.05 28.96 14.08 29.03 14.09C29.19 14.11 29.41 14.12 29.7 14.12C29.87 14.12 30.16 14.07 30.56 13.98C30.56 14 30.55 14.03 30.52 14.09C30.46 14.23 30.41 14.37 30.37 14.52C30.35 14.58 30.31 14.6 30.25 14.6C30.17 14.63 29.99 14.64 29.7 14.64C29.24 14.64 28.9 14.61 28.67 14.56C28.56 14.52 28.47 14.46 28.39 14.37C28.29 14.27 28.21 14.13 28.14 13.95C28.08 13.8 28.02 13.61 27.97 13.38C27.9 13.1 27.85 12.71 27.82 12.2C27.82 12.13 27.85 12.1 27.92 12.1H28.19H28.18ZM28.96 8.38999C29.25 8.52999 29.5 8.67999 29.73 8.84999C29.9 8.95999 30.05 9.07999 30.17 9.19999C30.18 9.20999 30.19 9.21998 30.19 9.22998C30.19 9.26998 30.06 9.35999 29.81 9.51999C29.79 9.51999 29.77 9.51999 29.75 9.49999C29.55 9.31999 29.33 9.15998 29.1 9.02998C28.96 8.93998 28.81 8.86999 28.65 8.78999C28.45 8.69999 28.23 8.60999 27.99 8.51999C27.97 8.51999 27.96 8.49999 27.96 8.49999C27.96 8.47999 28.05 8.36999 28.24 8.16999C28.27 8.13999 28.31 8.12999 28.35 8.12999C28.54 8.19999 28.74 8.27999 28.96 8.38999ZM30.03 6.87999C30.11 6.87999 30.17 6.90999 30.21 6.96999L30.12 7.36999H28.27C28.2 7.36999 28.17 7.33999 28.17 7.26999V6.97999C28.17 6.91999 28.2 6.87999 28.27 6.87999H30.03ZM28.8 9.83999H29.36V14.26C29.36 14.33 29.32 14.36 29.24 14.36H28.92C28.84 14.36 28.81 14.32 28.81 14.26V9.83999H28.8ZM30.21 6.96999C30.41 7.19999 30.51 7.32999 30.51 7.36999C29.98 8.15999 29.64 8.66998 29.51 8.89998C29.49 8.94998 29.47 8.96999 29.44 8.96999C29.4 8.96999 29.35 8.94999 29.3 8.90999C29.2 8.82999 29.1 8.73998 29 8.64998C28.96 8.62998 28.93 8.59999 28.93 8.55999L30.2 6.96999H30.21ZM30.16 11.75C30.23 11.75 30.26 11.79 30.26 11.87V12.2C30.26 12.28 30.22 12.32 30.16 12.32H29.18C29.11 12.32 29.08 12.28 29.08 12.2V11.87C29.08 11.79 29.12 11.75 29.18 11.75H30.16ZM30.26 9.57999H30.41C30.48 9.57999 30.52 9.58998 30.54 9.60998C30.63 9.70998 30.68 9.77999 30.68 9.82999L30.14 11.09C30.14 11.09 30.11 11.13 30.1 11.13C29.82 11.05 29.68 10.98 29.68 10.93L30.27 9.57999H30.26Z" fill="white"/>
<path d="M32.82 8.78999L33.35 8.98999C33.24 9.55999 33.14 10.08 33.03 10.54C32.9 11.02 32.76 11.44 32.61 11.81C32.47 12.2 32.3 12.57 32.1 12.9C32.03 12.9 31.99 12.88 31.95 12.85C31.83 12.79 31.7 12.73 31.58 12.67C31.53 12.67 31.5 12.65 31.5 12.62C31.76 12.2 31.97 11.78 32.13 11.37C32.29 10.98 32.41 10.6 32.5 10.23C32.59 9.94999 32.68 9.48999 32.79 8.84999C32.79 8.80999 32.8 8.79999 32.82 8.79999V8.78999ZM34.28 8.51999C34.35 8.51999 34.38 8.55999 34.38 8.63999V8.95999C34.38 9.03999 34.35 9.07999 34.28 9.07999H31.81C31.74 9.07999 31.71 9.03999 31.71 8.95999V8.63999C31.71 8.55999 31.74 8.51999 31.81 8.51999H34.28ZM33.67 6.78999C33.67 6.86999 33.64 6.90999 33.58 6.91999C33.52 6.91999 33.49 6.98999 33.49 7.09999V14.64C33.49 14.72 33.44 14.76 33.35 14.76H32.99C32.91 14.76 32.86 14.72 32.86 14.64V6.78999C32.86 6.71999 32.9 6.67999 32.99 6.67999C33.45 6.67999 33.67 6.71999 33.67 6.79999V6.78999ZM33.93 10.01C34.05 10.33 34.26 10.7 34.55 11.11C34.59 11.14 34.6 11.17 34.6 11.21C34.6 11.23 34.58 11.25 34.54 11.28C34.48 11.36 34.39 11.45 34.29 11.54C34.25 11.58 34.22 11.61 34.19 11.61C34.17 11.61 34.14 11.59 34.1 11.55C33.89 11.24 33.71 10.88 33.56 10.49C33.41 10.07 33.26 9.57999 33.12 9.01999L33.53 8.77999C33.67 9.30999 33.8 9.70999 33.92 9.99999L33.93 10.01ZM35.51 12.76L35.99 13.12C35.99 13.12 36.06 13.2 36.06 13.23C36.06 13.25 36.04 13.26 36 13.27C35.95 13.27 35.9 13.29 35.87 13.32C35.72 13.51 35.56 13.68 35.39 13.83C35.19 14 34.94 14.18 34.62 14.35C34.55 14.35 34.51 14.33 34.48 14.28C34.36 14.19 34.26 14.1 34.18 14.03C34.13 14.01 34.11 13.99 34.11 13.97C34.11 13.96 34.12 13.94 34.14 13.93C34.29 13.88 34.41 13.81 34.51 13.75C34.71 13.61 34.89 13.47 35.04 13.31C35.17 13.17 35.31 13.01 35.47 12.8C35.48 12.77 35.5 12.75 35.51 12.75V12.76ZM39.51 11.81C39.57 11.81 39.61 11.85 39.61 11.92V12.22C39.61 12.29 39.58 12.33 39.51 12.33H34.55C34.48 12.33 34.45 12.29 34.45 12.22V11.92C34.45 11.85 34.48 11.81 34.55 11.81H39.51ZM39.55 6.99999C39.61 6.99999 39.65 7.03999 39.65 7.10999V7.40999C39.65 7.47999 39.62 7.51999 39.55 7.51999H34.63C34.56 7.51999 34.53 7.47999 34.53 7.40999V7.10999C34.53 7.03999 34.56 6.99999 34.63 6.99999H39.55ZM34.77 8.21999H39.28L38.78 8.73999H35.3V9.60999L34.8 10.13C34.71 10.13 34.67 10.09 34.67 10.01V8.32999C34.67 8.24999 34.7 8.20999 34.77 8.20999V8.21999ZM38.78 8.73999L39.28 8.21999C39.36 8.21999 39.41 8.25999 39.41 8.33999V10.02C39.41 10.1 39.37 10.14 39.3 10.14H34.8L35.3 9.61999H38.78V8.74999V8.73999ZM38.96 10.73C39.02 10.73 39.06 10.77 39.06 10.84V11.14C39.06 11.21 39.03 11.25 38.96 11.25H35.15C35.08 11.25 35.05 11.21 35.05 11.14V10.84C35.05 10.77 35.08 10.73 35.15 10.73H38.96ZM36.76 12.07H37.39V14.04C37.39 14.49 37.03 14.72 36.31 14.72H35.93C35.93 14.72 35.86 14.67 35.86 14.57C35.85 14.44 35.79 14.28 35.69 14.1C35.69 14.06 35.69 14.05 35.72 14.05C35.91 14.1 36.09 14.12 36.26 14.12C36.59 14.12 36.76 14.01 36.76 13.8V12.08V12.07ZM36.01 7.25999H36.6V9.75999C36.6 9.82999 36.56 9.86999 36.47 9.86999H36.13C36.05 9.86999 36.01 9.82999 36.01 9.75999V7.25999ZM37.4 7.25999H37.99V9.75999C37.99 9.82999 37.95 9.86999 37.86 9.86999H37.52C37.44 9.86999 37.4 9.82999 37.4 9.75999V7.25999ZM39.11 13.35C39.33 13.58 39.52 13.78 39.68 13.96C39.68 13.97 39.66 14 39.63 14.04C39.46 14.28 39.36 14.4 39.35 14.4C39.11 14.11 38.85 13.85 38.58 13.6C38.35 13.41 38.17 13.27 38.02 13.19C38.02 13.16 38.11 13.04 38.3 12.83C38.33 12.79 38.35 12.77 38.37 12.77C38.67 12.98 38.92 13.18 39.11 13.36V13.35Z" fill="white"/>
<path d="M48.69 13.2C48.75 13.2 48.79 13.24 48.79 13.31V13.61C48.79 13.68 48.76 13.72 48.69 13.72H41.19C41.12 13.72 41.09 13.68 41.09 13.61V13.31C41.09 13.24 41.12 13.2 41.19 13.2H48.69ZM48.69 8.74001C48.75 8.74001 48.79 8.78001 48.79 8.85001V9.15001C48.79 9.22001 48.76 9.26001 48.69 9.26001H41.23C41.16 9.26001 41.13 9.22001 41.13 9.15001V8.85001C41.13 8.78001 41.16 8.74001 41.23 8.74001H48.69ZM48.1 7.21001C48.16 7.21001 48.2 7.25001 48.2 7.32001V7.62001C48.2 7.69001 48.17 7.73001 48.1 7.73001H41.82C41.75 7.73001 41.72 7.69001 41.72 7.62001V7.32001C41.72 7.25001 41.75 7.21001 41.82 7.21001H48.1ZM42.19 9.82001H47.72L47.22 10.34H42.69V12.05L42.19 12.57C42.1 12.57 42.06 12.53 42.06 12.45V9.93001C42.06 9.85001 42.1 9.81001 42.18 9.81001L42.19 9.82001ZM47.22 10.34L47.72 9.82001C47.8 9.82001 47.85 9.86001 47.85 9.94001V12.46C47.85 12.54 47.81 12.58 47.72 12.58H42.2L42.7 12.06H47.23V10.35L47.22 10.34ZM47.44 10.94C47.5 10.94 47.54 10.98 47.54 11.05V11.35C47.54 11.42 47.51 11.46 47.44 11.46H42.48C42.41 11.46 42.38 11.42 42.38 11.35V11.05C42.38 10.98 42.41 10.94 42.48 10.94H47.44ZM43.54 8.18001C43.64 8.30001 43.73 8.42001 43.81 8.56001C43.81 8.59001 43.6 8.65001 43.19 8.77001C43.16 8.69001 43.1 8.59001 43 8.48001C42.89 8.35001 42.76 8.21001 42.59 8.08001C42.59 8.04001 42.76 7.93001 43.11 7.77001C43.29 7.93001 43.43 8.07001 43.54 8.20001V8.18001ZM44.57 12.31H45.2V14.63C45.2 14.71 45.15 14.75 45.06 14.75H44.7C44.62 14.75 44.57 14.71 44.57 14.63V12.31ZM45.42 6.68001C45.42 6.76001 45.39 6.80001 45.33 6.81001C45.27 6.81001 45.24 6.88001 45.24 6.99001V7.36001C45.24 7.44001 45.19 7.48001 45.1 7.48001H44.74C44.66 7.48001 44.61 7.44001 44.61 7.36001V6.68001C44.61 6.61001 44.65 6.57001 44.74 6.57001C45.2 6.57001 45.42 6.61001 45.42 6.69001V6.68001ZM46.65 7.72001L47.19 7.94001C47.28 7.98001 47.32 8.02001 47.32 8.07001C47.32 8.09001 47.3 8.11001 47.25 8.12001C47.19 8.12001 47.15 8.14001 47.14 8.17001C46.97 8.43001 46.8 8.64001 46.64 8.78001C46.6 8.81001 46.57 8.82001 46.55 8.82001C46.51 8.82001 46.46 8.80001 46.4 8.77001C46.28 8.71001 46.17 8.66001 46.06 8.61001C46.01 8.59001 45.99 8.58001 45.99 8.56001C45.99 8.56001 45.99 8.54001 46.02 8.53001C46.16 8.39001 46.28 8.27001 46.35 8.17001C46.46 8.04001 46.54 7.90001 46.59 7.77001C46.61 7.73001 46.63 7.71001 46.65 7.71001V7.72001Z" fill="white"/>
<path d="M54.28 13.92H50.06C50.05 13.48 50.25 13.01 50.66 12.53C50.91 12.23 51.3 11.87 51.84 11.44C52.26 11.1 52.63 10.76 52.95 10.4C53.29 10.02 53.46 9.64 53.46 9.26C53.46 8.94 53.34 8.67 53.11 8.46C52.88 8.25 52.6 8.15 52.26 8.15C52.02 8.15 51.79 8.21 51.59 8.32C51.21 8.53 51.01 8.9 51.01 9.44L50.21 9.34C50.24 9.04 50.3 8.8 50.38 8.61C50.71 7.87 51.34 7.5 52.28 7.5C52.94 7.5 53.46 7.7 53.82 8.09C54.12 8.42 54.26 8.82 54.26 9.27C54.26 9.62 54.16 9.96 53.97 10.28C53.73 10.68 53.3 11.13 52.7 11.66L52.06 12.2C51.64 12.54 51.33 12.86 51.15 13.16H54.28V13.92Z" fill="white"/>
<path d="M56.67 13.92H55.77V13.02H56.67V13.92Z" fill="white"/>
<path d="M60.97 13.96H60.18V8.91999C59.99 9.09999 59.74 9.27999 59.43 9.45999C59.12 9.63999 58.84 9.77999 58.6 9.86999V9.10999C59.04 8.89999 59.43 8.64999 59.76 8.34999C60.09 8.04999 60.33 7.76999 60.46 7.48999H60.97V13.96Z" fill="white"/>
</g>
<defs>
<clipPath id="clip0_762_11404">
<rect width="88" height="31" fill="white"/>
</clipPath>
</defs>
</svg>
