<svg width="1920" height="397" viewBox="0 0 1920 397" fill="none" xmlns="http://www.w3.org/2000/svg">
<path d="M-42.32 390H28.72V263.76H76.24C152.56 263.76 213.52 227.28 213.52 146.16C213.52 62.16 153.04 34.8 74.32 34.8H-42.32V390ZM28.72 207.6V90.96H69.04C118 90.96 143.92 104.88 143.92 146.16C143.92 186.96 120.4 207.6 71.44 207.6H28.72ZM372.209 396.72C439.409 396.72 501.329 344.88 501.329 256.08C501.329 166.32 439.409 114.48 372.209 114.48C305.009 114.48 243.089 166.32 243.089 256.08C243.089 344.88 305.009 396.72 372.209 396.72ZM372.209 339.12C335.729 339.12 315.089 306.48 315.089 256.08C315.089 205.2 335.729 172.08 372.209 172.08C408.689 172.08 429.329 205.2 429.329 256.08C429.329 306.48 408.689 339.12 372.209 339.12ZM560.358 390H630.438V229.68C645.797 190.8 671.238 176.88 692.358 176.88C703.398 176.88 711.078 178.32 720.198 181.2L732.678 120.24C724.518 116.88 715.878 114.48 700.998 114.48C673.158 114.48 644.358 133.68 624.678 168.72H622.758L617.958 121.2H560.358V390ZM867.82 396.72C891.34 396.72 910.06 391.44 924.46 386.64L912.94 335.28C905.74 338.16 895.18 341.04 886.54 341.04C862.54 341.04 850.06 326.64 850.06 295.92V176.88H916.3V121.2H850.06V49.2H791.02L782.86 121.2L741.58 124.56V176.88H779.5V295.92C779.5 356.4 803.98 396.72 867.82 396.72ZM1127.46 9.83997C1115.46 5.03998 1097.22 0.239983 1076.58 0.239983C1008.9 0.239983 982.983 43.44 982.983 99.6V121.68L946.983 124.56V176.88H982.983V390H1053.54V176.88H1103.94V121.2H1053.54V98.16C1053.54 68.4 1065.06 55.92 1086.18 55.92C1094.82 55.92 1105.38 58.32 1114.5 61.68L1127.46 9.83997ZM1256.27 396.72C1323.47 396.72 1385.39 344.88 1385.39 256.08C1385.39 166.32 1323.47 114.48 1256.27 114.48C1189.07 114.48 1127.15 166.32 1127.15 256.08C1127.15 344.88 1189.07 396.72 1256.27 396.72ZM1256.27 339.12C1219.79 339.12 1199.15 306.48 1199.15 256.08C1199.15 205.2 1219.79 172.08 1256.27 172.08C1292.75 172.08 1313.39 205.2 1313.39 256.08C1313.39 306.48 1292.75 339.12 1256.27 339.12ZM1510.66 396.72C1526.98 396.72 1538.98 393.84 1547.14 390.48L1538.5 338.16C1533.7 339.12 1531.78 339.12 1528.9 339.12C1522.18 339.12 1514.5 333.84 1514.5 318V6.95998H1444.42V314.64C1444.42 364.56 1461.7 396.72 1510.66 396.72ZM1595.83 390H1665.91V121.2H1595.83V390ZM1631.35 78C1655.35 78 1673.11 61.68 1673.11 39.6C1673.11 16.56 1655.35 1.19997 1631.35 1.19997C1606.87 1.19997 1589.11 16.56 1589.11 39.6C1589.11 61.68 1606.87 78 1631.35 78ZM1853.93 396.72C1921.13 396.72 1983.05 344.88 1983.05 256.08C1983.05 166.32 1921.13 114.48 1853.93 114.48C1786.73 114.48 1724.81 166.32 1724.81 256.08C1724.81 344.88 1786.73 396.72 1853.93 396.72ZM1853.93 339.12C1817.45 339.12 1796.81 306.48 1796.81 256.08C1796.81 205.2 1817.45 172.08 1853.93 172.08C1890.41 172.08 1911.05 205.2 1911.05 256.08C1911.05 306.48 1890.41 339.12 1853.93 339.12Z" fill="#F2F2F2"/>
</svg>
