<svg width="398" height="2026" viewBox="0 0 398 2026" fill="none" xmlns="http://www.w3.org/2000/svg">
<g clip-path="url(#clip0_1391_1092)">
<path d="M7.5 0.179976L7.5 71.22L133.74 71.22L133.74 118.74C133.74 195.06 170.22 256.02 251.34 256.02C335.34 256.02 362.7 195.54 362.7 116.82L362.7 0.179991L7.5 0.179976ZM189.9 71.22L306.54 71.22L306.54 111.54C306.54 160.5 292.62 186.42 251.34 186.42C210.54 186.42 189.9 162.9 189.9 113.94L189.9 71.22ZM0.779981 414.709C0.779978 481.909 52.62 543.829 141.42 543.829C231.18 543.829 283.02 481.909 283.02 414.709C283.02 347.509 231.18 285.589 141.42 285.589C52.62 285.589 0.779984 347.509 0.779981 414.709ZM58.38 414.709C58.38 378.229 91.02 357.589 141.42 357.589C192.3 357.589 225.42 378.229 225.42 414.709C225.42 451.189 192.3 471.829 141.42 471.829C91.02 471.829 58.38 451.189 58.38 414.709ZM7.49997 602.858L7.49997 672.938L167.82 672.938C206.7 688.297 220.62 713.738 220.62 734.858C220.62 745.898 219.18 753.578 216.3 762.698L277.26 775.178C280.62 767.018 283.02 758.378 283.02 743.498C283.02 715.658 263.82 686.858 228.78 667.178L228.78 665.258L276.3 660.458L276.3 602.858L7.49997 602.858ZM0.779959 910.32C0.779958 933.84 6.05994 952.56 10.8599 966.96L62.22 955.44C59.34 948.24 56.46 937.68 56.46 929.04C56.46 905.04 70.8599 892.56 101.58 892.56L220.62 892.56L220.62 958.8L276.3 958.8L276.3 892.56L348.3 892.56L348.3 833.52L276.3 825.36L272.94 784.08L220.62 784.08L220.62 822L101.58 822C41.1 822 0.779962 846.48 0.779959 910.32ZM387.66 1169.96C392.46 1157.96 397.26 1139.72 397.26 1119.08C397.26 1051.4 354.06 1025.48 297.9 1025.48L275.82 1025.48L272.94 989.483L220.62 989.483L220.62 1025.48L7.49996 1025.48L7.49995 1096.04L220.62 1096.04L220.62 1146.44L276.3 1146.44L276.3 1096.04L299.34 1096.04C329.1 1096.04 341.58 1107.56 341.58 1128.68C341.58 1137.32 339.18 1147.88 335.82 1157L387.66 1169.96ZM0.779942 1298.77C0.779939 1365.97 52.6199 1427.89 141.42 1427.89C231.18 1427.89 283.02 1365.97 283.02 1298.77C283.02 1231.57 231.18 1169.65 141.42 1169.65C52.62 1169.65 0.779945 1231.57 0.779942 1298.77ZM58.3799 1298.77C58.3799 1262.29 91.02 1241.65 141.42 1241.65C192.3 1241.65 225.42 1262.29 225.42 1298.77C225.42 1335.25 192.3 1355.89 141.42 1355.89C91.02 1355.89 58.3799 1335.25 58.3799 1298.77ZM0.779931 1553.16C0.77993 1569.48 3.65992 1581.48 7.01992 1589.64L59.3399 1581C58.3799 1576.2 58.3799 1574.28 58.3799 1571.4C58.3799 1564.68 63.6599 1557 79.4999 1557L390.54 1557L390.54 1486.92L82.8599 1486.92C32.9399 1486.92 0.779933 1504.2 0.779931 1553.16ZM7.49993 1638.33L7.49993 1708.41L276.3 1708.41L276.3 1638.33L7.49993 1638.33ZM319.5 1673.85C319.5 1697.85 335.82 1715.61 357.9 1715.61C380.94 1715.61 396.3 1697.85 396.3 1673.85C396.3 1649.37 380.94 1631.61 357.9 1631.61C335.82 1631.61 319.5 1649.37 319.5 1673.85ZM0.779916 1896.43C0.779913 1963.63 52.6199 2025.55 141.42 2025.55C231.18 2025.55 283.02 1963.63 283.02 1896.43C283.02 1829.23 231.18 1767.31 141.42 1767.31C52.6199 1767.31 0.779919 1829.23 0.779916 1896.43ZM58.3799 1896.43C58.3799 1859.95 91.0199 1839.31 141.42 1839.31C192.3 1839.31 225.42 1859.95 225.42 1896.43C225.42 1932.91 192.3 1953.55 141.42 1953.55C91.0199 1953.55 58.3799 1932.91 58.3799 1896.43Z" fill="#EEEEEE"/>
</g>
<defs>
<clipPath id="clip0_1391_1092">
<rect width="2026" height="398" fill="white" transform="translate(398) rotate(90)"/>
</clipPath>
</defs>
</svg>
